<mxfile host="app.diagrams.net" modified="2024-05-20T18:35:25.983Z" agent="Mozilla/5.0 (Windows NT 10.0; Win64; x64) AppleWebKit/537.36 (KHTML, like Gecko) Chrome/124.0.0.0 Safari/537.36" etag="L8cnG0hU8E8GlfeSIxsc" version="24.4.4" type="github">
  <diagram name="第 1 页" id="3DIv2Ma0zjcZvKPmoo05">
    <mxGraphModel dx="1434" dy="738" grid="1" gridSize="10" guides="1" tooltips="1" connect="1" arrows="1" fold="1" page="1" pageScale="1" pageWidth="827" pageHeight="1169" math="0" shadow="0">
      <root>
        <mxCell id="0" />
        <mxCell id="1" parent="0" />
        <mxCell id="jZWj84LQTIyDGJxanF_p-7" style="edgeStyle=orthogonalEdgeStyle;rounded=0;orthogonalLoop=1;jettySize=auto;html=1;exitX=0;exitY=0.5;exitDx=0;exitDy=0;entryX=1;entryY=0.5;entryDx=0;entryDy=0;endArrow=none;endFill=0;" edge="1" parent="1" source="jZWj84LQTIyDGJxanF_p-1" target="jZWj84LQTIyDGJxanF_p-4">
          <mxGeometry relative="1" as="geometry" />
        </mxCell>
        <mxCell id="jZWj84LQTIyDGJxanF_p-10" style="edgeStyle=none;rounded=0;orthogonalLoop=1;jettySize=auto;html=1;exitX=0.5;exitY=0;exitDx=0;exitDy=0;endArrow=none;endFill=0;" edge="1" parent="1" source="jZWj84LQTIyDGJxanF_p-1" target="jZWj84LQTIyDGJxanF_p-2">
          <mxGeometry relative="1" as="geometry" />
        </mxCell>
        <mxCell id="jZWj84LQTIyDGJxanF_p-11" style="edgeStyle=none;rounded=0;orthogonalLoop=1;jettySize=auto;html=1;exitX=0.5;exitY=0;exitDx=0;exitDy=0;entryX=0.5;entryY=1;entryDx=0;entryDy=0;endArrow=none;endFill=0;" edge="1" parent="1" source="jZWj84LQTIyDGJxanF_p-1" target="jZWj84LQTIyDGJxanF_p-5">
          <mxGeometry relative="1" as="geometry" />
        </mxCell>
        <mxCell id="jZWj84LQTIyDGJxanF_p-13" style="edgeStyle=none;rounded=0;orthogonalLoop=1;jettySize=auto;html=1;exitX=1;exitY=0.5;exitDx=0;exitDy=0;endArrow=none;endFill=0;" edge="1" parent="1" source="jZWj84LQTIyDGJxanF_p-1" target="jZWj84LQTIyDGJxanF_p-3">
          <mxGeometry relative="1" as="geometry" />
        </mxCell>
        <mxCell id="jZWj84LQTIyDGJxanF_p-1" value="&lt;font style=&quot;font-size: 18px;&quot;&gt;公益机构表&lt;/font&gt;" style="rounded=0;whiteSpace=wrap;html=1;fontSize=18;" vertex="1" parent="1">
          <mxGeometry x="350" y="350" width="120" height="60" as="geometry" />
        </mxCell>
        <mxCell id="jZWj84LQTIyDGJxanF_p-2" value="机构名称" style="ellipse;whiteSpace=wrap;html=1;fontSize=18;" vertex="1" parent="1">
          <mxGeometry x="180" y="210" width="120" height="80" as="geometry" />
        </mxCell>
        <mxCell id="jZWj84LQTIyDGJxanF_p-3" value="宣传海报" style="ellipse;whiteSpace=wrap;html=1;fontSize=18;" vertex="1" parent="1">
          <mxGeometry x="590" y="340" width="120" height="80" as="geometry" />
        </mxCell>
        <mxCell id="jZWj84LQTIyDGJxanF_p-4" value="&lt;u style=&quot;font-size: 18px;&quot;&gt;&lt;font style=&quot;font-size: 18px;&quot;&gt;机构id&lt;/font&gt;&lt;/u&gt;" style="ellipse;whiteSpace=wrap;html=1;fontSize=18;" vertex="1" parent="1">
          <mxGeometry x="110" y="340" width="120" height="80" as="geometry" />
        </mxCell>
        <mxCell id="jZWj84LQTIyDGJxanF_p-5" value="创建者id" style="ellipse;whiteSpace=wrap;html=1;fontSize=18;" vertex="1" parent="1">
          <mxGeometry x="350" y="170" width="120" height="80" as="geometry" />
        </mxCell>
        <mxCell id="jZWj84LQTIyDGJxanF_p-6" value="机构描述" style="ellipse;whiteSpace=wrap;html=1;fontSize=18;" vertex="1" parent="1">
          <mxGeometry x="520" y="210" width="120" height="80" as="geometry" />
        </mxCell>
        <mxCell id="jZWj84LQTIyDGJxanF_p-12" style="edgeStyle=none;rounded=0;orthogonalLoop=1;jettySize=auto;html=1;exitX=0.5;exitY=0;exitDx=0;exitDy=0;entryX=0.083;entryY=0.875;entryDx=0;entryDy=0;entryPerimeter=0;endArrow=none;endFill=0;" edge="1" parent="1" source="jZWj84LQTIyDGJxanF_p-1" target="jZWj84LQTIyDGJxanF_p-6">
          <mxGeometry relative="1" as="geometry" />
        </mxCell>
      </root>
    </mxGraphModel>
  </diagram>
</mxfile>
